<svg width="319" height="50" viewBox="0 0 319 50" fill="none" xmlns="http://www.w3.org/2000/svg">
<rect x="0.547089" width="318" height="50" rx="8" fill="white"/>
<path d="M37.5971 33.28C36.6171 34.23 35.5471 34.08 34.5171 33.63C33.4271 33.17 32.4271 33.15 31.2771 33.63C29.8371 34.25 29.0771 34.07 28.2171 33.28C23.3371 28.25 24.0571 20.59 29.5971 20.31C30.9471 20.38 31.8871 21.05 32.6771 21.11C33.8571 20.87 34.9871 20.18 36.2471 20.27C37.7571 20.39 38.8971 20.99 39.6471 22.07C36.5271 23.94 37.2671 28.05 40.1271 29.2C39.5571 30.7 38.8171 32.19 37.5871 33.29L37.5971 33.28ZM32.5771 20.25C32.4271 18.02 34.2371 16.18 36.3171 16C36.6071 18.58 33.9771 20.5 32.5771 20.25Z" fill="#23262D"/>
<path d="M113.458 19.368L118.258 31.08H116.642L115.314 27.832H109.842L108.482 31.08H106.866L111.746 19.368H113.458ZM110.386 26.52H114.77L112.594 21.224L110.386 26.52ZM124.186 29.912C125.69 29.912 126.714 28.712 126.714 26.968C126.714 25.24 125.69 24.04 124.186 24.04C122.794 24.04 121.61 25.368 121.61 26.968C121.61 28.584 122.794 29.912 124.186 29.912ZM120.106 34.696V22.776H121.594V24.328C122.202 23.24 123.466 22.776 124.266 22.776C126.586 22.776 128.218 24.504 128.218 26.968C128.218 29.432 126.586 31.176 124.266 31.176C123.434 31.176 122.202 30.648 121.594 29.608V34.696H120.106ZM133.983 29.912C135.487 29.912 136.511 28.712 136.511 26.968C136.511 25.24 135.487 24.04 133.983 24.04C132.591 24.04 131.407 25.368 131.407 26.968C131.407 28.584 132.591 29.912 133.983 29.912ZM129.903 34.696V22.776H131.391V24.328C131.999 23.24 133.263 22.776 134.063 22.776C136.383 22.776 138.015 24.504 138.015 26.968C138.015 29.432 136.383 31.176 134.063 31.176C133.231 31.176 131.999 30.648 131.391 29.608V34.696H129.903ZM139.476 19.368H140.964V31.08H139.476V19.368ZM148.697 26.36C148.569 25.208 147.977 24.024 146.409 24.024C145.081 24.024 144.073 25.032 143.881 26.376L148.697 26.36ZM142.425 26.952C142.425 24.488 144.057 22.76 146.377 22.76C148.953 22.76 149.721 24.84 149.785 25C150.281 26.248 150.105 27.464 150.105 27.56H143.881C144.073 28.92 145.161 29.848 146.393 29.848C148.073 29.848 148.585 28.824 148.665 28.712L149.849 29.288C149.849 29.288 149.097 31.112 146.377 31.112C144.057 31.112 142.425 29.4 142.425 26.952ZM151.417 28.808H157.049V26.632H153.417V22.232H160.857V20.376H153.385V19.144H162.265V23.448H154.825V25.4H162.585V26.632H158.585V28.808H164.233V30.072H151.417V28.808ZM174.183 25.496H176.535V23.208H174.455C173.591 25.72 171.543 27.56 169.463 28.248L169.015 26.84C171.319 26.088 173.399 23.784 173.399 20.664H169.511V19.4H174.887V20.664C174.887 21.112 174.855 21.544 174.775 21.96H176.535V18.44H177.991V31.064H176.535V26.744H174.183V25.496ZM179.399 31.752V18.088H180.871V31.752H179.399ZM182.51 25.112H188.126V23.064H189.662V25.112H195.326V26.36H182.51V25.112ZM183.646 22.744L187.246 20.712C188.11 20.232 188.158 20.088 188.158 19.704V17.96H189.694V19.704C189.694 20.088 189.742 20.232 190.59 20.712L194.19 22.744L193.518 23.96L189.918 21.928C189.486 21.688 189.166 21.448 188.926 21.208C188.686 21.448 188.35 21.688 187.918 21.928L184.318 23.96L183.646 22.744ZM184.366 28.84V27.608H193.454V32.248H191.918V28.84H184.366ZM205.637 18.088H207.173V23.816H209.397V25.096H207.173V31.768H205.637V18.088ZM196.421 21.272V20.024H199.589V18.216H201.109V20.024H204.277V21.272H196.421ZM196.965 25.208C196.965 23.256 198.357 21.88 200.341 21.88C202.341 21.88 203.733 23.256 203.733 25.208C203.733 27.16 202.341 28.52 200.341 28.52C198.357 28.52 196.965 27.16 196.965 25.208ZM198.421 25.208C198.421 26.392 199.205 27.224 200.341 27.224C201.493 27.224 202.261 26.392 202.261 25.208C202.261 24.008 201.493 23.176 200.341 23.176C199.205 23.176 198.421 24.008 198.421 25.208ZM220.029 18.088H221.581V31.752H220.029V18.088ZM210.637 26.792C213.501 26.04 216.029 23.752 216.061 20.68H211.053V19.416H217.533V20.68C217.501 24.504 214.253 27.368 211.005 28.232L210.637 26.792Z" fill="#23262D"/>
</svg>
